<?xml version="1.0" encoding="UTF-8" standalone="no"?>
<!-- Created with Inkscape (http://www.inkscape.org/) -->

<svg
   width="512"
   height="512"
   viewBox="0 0 135.46666 135.46667"
   version="1.1"
   id="svg1"
   xml:space="preserve"
   inkscape:version="1.4 (e7c3feb1, 2024-10-09)"
   sodipodi:docname="logo.svg"
   xmlns:inkscape="http://www.inkscape.org/namespaces/inkscape"
   xmlns:sodipodi="http://sodipodi.sourceforge.net/DTD/sodipodi-0.dtd"
   xmlns:xlink="http://www.w3.org/1999/xlink"
   xmlns="http://www.w3.org/2000/svg"
   xmlns:svg="http://www.w3.org/2000/svg"><sodipodi:namedview
     id="namedview1"
     pagecolor="#ffffff"
     bordercolor="#000000"
     borderopacity="0.25"
     inkscape:showpageshadow="2"
     inkscape:pageopacity="0.0"
     inkscape:pagecheckerboard="0"
     inkscape:deskcolor="#d1d1d1"
     inkscape:document-units="mm"
     inkscape:zoom="0.78216891"
     inkscape:cx="396.97308"
     inkscape:cy="458.98014"
     inkscape:window-width="1184"
     inkscape:window-height="1027"
     inkscape:window-x="0"
     inkscape:window-y="25"
     inkscape:window-maximized="0"
     inkscape:current-layer="layer1" /><defs
     id="defs1" /><g
     inkscape:label="Camada 1"
     inkscape:groupmode="layer"
     id="layer1"><image
       width="135.46666"
       height="135.46666"
       preserveAspectRatio="none"
       style="image-rendering:optimizeQuality"
       xlink:href="../../../../../Desktop/logo.png"
       id="image1"
       x="0"
       y="0" /><path
       style="fill:#000000"
       d="m 30.578272,127.64255 c -0.28343,-0.28343 -0.415774,-0.90958 -0.415774,-1.96715 0,-0.85326 -0.126606,-1.88655 -0.281347,-2.2962 C 29.72641,122.96954 23.605139,116.62171 16.278328,109.27291 3.4725496,96.428699 2.9405888,95.855821 2.536759,94.474369 2.1803384,93.255098 2.1166666,91.219488 2.1166666,81.043882 c 0,-11.675011 0.014918,-12.02514 0.5619533,-13.188907 0.7188431,-1.529273 2.1105549,-2.677304 3.869785,-3.192208 2.7835852,-0.814719 5.7470861,0.499939 7.0582841,3.13117 0.618965,1.242102 0.68081,1.65804 0.68081,4.578792 0,1.766921 0.07419,5.940496 0.164874,9.274612 l 0.164874,6.062029 8.361634,8.399751 c 5.902858,5.929769 8.624766,8.486589 9.256474,8.695079 2.446022,0.80726 4.80631,-0.89848 4.80631,-3.47343 0,-1.30159 -0.548285,-2.037634 -4.233953,-5.6839 -4.024086,-3.981066 -4.605677,-4.883157 -4.605677,-7.14375 0,-3.334606 2.402605,-5.700766 5.770258,-5.68273 2.064175,0.01105 2.88588,0.673292 11.035103,8.893528 8.480549,8.554452 9.289189,9.588022 10.736128,13.722532 l 0.740762,2.11667 0.08535,9.96957 c 0.08478,9.90312 0.08164,9.97156 -0.470889,10.26726 -0.740316,0.39621 -1.562815,0.10531 -1.722334,-0.60915 -0.07094,-0.31773 -0.162231,-4.68534 -0.202872,-9.70581 l -0.07389,-9.12812 -0.743266,-2.11413 c -1.331351,-3.78686 -2.09561,-4.74799 -10.337815,-13.000832 -8.282644,-8.293334 -8.475195,-8.436477 -10.314558,-7.667942 -2.08919,0.872919 -2.655885,3.183015 -1.246743,5.082269 0.421081,0.567537 2.156078,2.401104 3.855549,4.074593 3.53439,3.480356 4.162486,4.47216 4.175291,6.593052 0.02186,3.62154 -2.420671,6.09533 -6.018317,6.09533 -2.808376,0 -3.179708,-0.28375 -12.208448,-9.328688 C 16.729508,93.540555 12.800446,89.409318 12.530093,88.899995 12.086247,88.063828 12.025702,87.073997 11.906249,78.701036 11.759867,68.440467 11.78358,68.57862 9.9736444,67.441386 8.8254437,66.71994 6.8689429,66.874402 5.9193514,67.761466 4.3700303,69.20877 4.399886,68.895583 4.5790144,81.821646 c 0.1117042,8.060674 0.2607309,12.029597 0.4669298,12.435416 0.1665734,0.327832 6.2381038,6.549178 13.4922908,13.825228 9.04608,9.07333 13.317613,13.53818 13.597472,14.21285 0.251644,0.60666 0.408041,1.79467 0.408041,3.09955 0,1.82109 -0.07129,2.15401 -0.511772,2.38974 -0.695293,0.37211 -0.966148,0.34568 -1.453704,-0.14188 z m 48.697326,0.0757 c -0.432173,-0.31601 -0.459017,-1.0423 -0.378948,-10.2526 l 0.08617,-9.9125 0.740537,-2.11667 c 1.447645,-4.13778 2.253229,-5.16674 10.735903,-13.712835 4.308392,-4.340602 8.167263,-8.067673 8.575269,-8.282379 1.087838,-0.572457 3.125458,-0.743339 4.314978,-0.361868 2.49957,0.8016 3.91511,2.762599 3.91511,5.423752 0,2.260593 -0.58159,3.162684 -4.60567,7.14375 -1.91222,1.891771 -3.647125,3.761092 -3.855355,4.154048 -1.581033,2.983602 1.572305,6.234862 4.723125,4.869802 0.47295,-0.2049 4.51212,-4.05654 9.087,-8.665104 l 8.23559,-8.296246 0.16493,-6.062029 c 0.0907,-3.334116 0.16492,-7.507691 0.16492,-9.274612 0,-2.920752 0.0619,-3.33669 0.68081,-4.578792 1.3112,-2.631231 4.2747,-3.945889 7.05828,-3.13117 1.75923,0.514904 3.15095,1.662935 3.86979,3.192208 0.54703,1.163767 0.56195,1.513896 0.56195,13.188907 0,10.204037 -0.063,12.207809 -0.42222,13.430487 -0.38496,1.310251 -0.82279,1.840847 -4.96094,6.011921 -3.73716,3.76691 -4.65467,4.56126 -5.1953,4.49792 -0.44405,-0.052 -0.73995,-0.31534 -0.91411,-0.81346 -0.24669,-0.70553 -0.0782,-0.91716 4.00169,-5.027085 2.34256,-2.3598 4.39539,-4.558771 4.56184,-4.886603 0.20589,-0.405518 0.35507,-4.380719 0.4667,-12.435416 0.17912,-12.926063 0.20898,-12.612876 -1.34034,-14.06018 -0.94959,-0.887064 -2.90609,-1.041526 -4.05429,-0.32008 -1.80994,1.137234 -1.78623,0.999081 -1.93261,11.25965 -0.11945,8.372961 -0.18,9.362792 -0.62384,10.198959 -0.27036,0.509323 -4.19942,4.64056 -8.73125,9.180527 -9.02874,9.044938 -9.40007,9.328688 -12.20845,9.328688 -3.582327,0 -6.023901,-2.45801 -6.033182,-6.0738 -0.0054,-2.095967 0.646628,-3.125229 4.190152,-6.614582 1.69947,-1.673489 3.43447,-3.507056 3.85555,-4.074593 1.40914,-1.899254 0.84245,-4.20935 -1.24674,-5.082269 -1.81696,-0.759173 -2.06339,-0.579486 -9.978256,7.27582 -8.039496,7.978994 -9.289393,9.537724 -10.606296,13.226974 l -0.813902,2.28011 -0.134704,9.60118 c -0.114282,8.14556 -0.194874,9.63915 -0.53158,9.85167 -0.538332,0.33979 -0.872346,0.32065 -1.422314,-0.0815 z m 24.110332,0.0543 c -0.37978,-0.2212 -0.46302,-0.64938 -0.46302,-2.3817 0,-1.31078 0.15587,-2.48508 0.41087,-3.09538 0.43649,-1.04466 10.96576,-11.84445 11.80857,-12.11194 0.67819,-0.21525 1.53889,0.34601 1.53889,1.0035 0,0.39072 -1.71832,2.30342 -5.40987,6.02184 -2.97543,2.99709 -5.53527,5.77908 -5.68854,6.1822 -0.15327,0.40313 -0.27867,1.43107 -0.27867,2.28433 0,2.0578 -0.69022,2.8124 -1.91823,2.09715 z m 14.93573,-19.34631 c -0.17462,-0.17462 -0.3175,-0.56753 -0.3175,-0.87312 0,-0.30559 0.14288,-0.6985 0.3175,-0.87313 0.17463,-0.17462 0.56753,-0.3175 0.87313,-0.3175 0.30559,0 0.6985,0.14288 0.87312,0.3175 0.17463,0.17463 0.3175,0.56754 0.3175,0.87313 0,0.30559 -0.14287,0.6985 -0.3175,0.87312 -0.17462,0.17463 -0.56753,0.3175 -0.87312,0.3175 -0.3056,0 -0.6985,-0.14287 -0.87313,-0.3175 z M 67.601038,74.04941 C 65.053166,73.830288 61.582912,72.928455 59.15378,71.854178 53.599722,69.39791 48.247727,64.051146 45.862406,58.575797 l -0.73641,-1.690383 h -5.09119 c -4.875455,0 -5.103593,-0.02317 -5.383887,-0.546909 -0.227684,-0.425433 -0.199013,-0.689888 0.129082,-1.190625 0.420004,-0.641007 0.441124,-0.643716 5.017764,-0.643716 h 4.595984 L 44.14029,53.379685 c -0.139402,-0.618464 -0.335272,-1.779323 -0.435267,-2.579688 l -0.18181,-1.455208 -3.383483,-0.132292 c -3.368755,-0.131715 -3.883712,-0.289585 -3.883712,-1.190625 0,-0.901059 0.514939,-1.058908 3.884084,-1.190624 l 3.383854,-0.132292 0.17216,-1.927815 c 0.09469,-1.060298 0.245785,-2.221158 0.33577,-2.579687 l 0.16361,-0.651873 h -7.142691 -7.142691 l -0.421779,-0.643716 c -0.328096,-0.500737 -0.356767,-0.765192 -0.129082,-1.190625 0.285335,-0.533153 0.482066,-0.546909 7.821992,-0.546909 h 7.529296 l 1.192645,-2.55219 c 0.655955,-1.403704 1.192645,-2.594329 1.192645,-2.645833 0,-0.0515 -1.785938,-0.09364 -3.96875,-0.09364 -3.615972,0 -4.015787,-0.04704 -4.497916,-0.529167 -0.663161,-0.663161 -0.663161,-0.924339 0,-1.5875 0.490941,-0.490941 0.881944,-0.529166 5.41276,-0.529166 l 4.883593,0 2.19401,-2.206603 c 3.331262,-3.350382 7.457032,-5.849366 11.434878,-6.926118 l 1.739341,-0.470818 v -1.780714 c 0,-1.731773 -0.02196,-1.789812 -0.799108,-2.111716 -1.029076,-0.426257 -2.018077,-1.609581 -2.394038,-2.864429 -0.543492,-1.814012 0.442609,-4.035075 2.22432,-5.0099916 0.722934,-0.3955752 1.644956,-0.4577346 6.789659,-0.4577346 5.727271,0 5.989728,0.022762 6.917935,0.5999721 3.015737,1.8753501 2.840112,6.4323371 -0.297995,7.7321831 -0.777144,0.321904 -0.799107,0.379943 -0.799107,2.111716 v 1.780714 l 1.739341,0.470818 c 3.878364,1.049824 8.077188,3.563201 11.245349,6.731363 8.448276,8.448275 10.225992,21.404691 4.372929,31.870946 -1.056574,1.889331 -1.757534,2.327936 -2.559914,1.601792 -0.684685,-0.619631 -0.649051,-0.914697 0.306105,-2.534646 1.156391,-1.961243 2.250904,-4.835236 2.736227,-7.184832 0.53609,-2.595379 0.535212,-7.299961 -0.0019,-9.919828 -1.907118,-9.303177 -9.228678,-16.642226 -18.700062,-18.744729 -2.515033,-0.558299 -7.402882,-0.558299 -9.917915,0 -4.7453,1.053384 -8.860437,3.321833 -12.246403,6.750767 -3.260898,3.302279 -5.265012,6.954079 -6.379808,11.624975 -0.469426,1.966851 -0.528869,2.851744 -0.412111,6.134828 0.15731,4.423375 0.502293,5.914381 2.20385,9.525 3.844381,8.157583 11.522734,13.275545 20.536568,13.68853 4.960979,0.227296 8.603427,-0.584533 12.904223,-2.876093 1.839839,-0.980308 2.175063,-1.078591 2.763841,-0.810326 0.807055,0.367719 0.873242,1.171777 0.155535,1.889483 -1.514018,1.514019 -8.066231,3.868551 -11.492071,4.129666 -1.036223,0.07898 -2.181698,0.176359 -2.5455,0.216398 -0.363802,0.04004 -1.73302,-0.01936 -3.042708,-0.131995 z m 5.820833,-54.337953 v -1.322916 l -3.373437,-0.07405 -3.373438,-0.07405 v 1.439574 1.439575 l 3.373438,-0.04261 3.373437,-0.04261 z m 2.751007,-4.472777 c 0.726061,-0.657856 0.739919,-2.090463 0.02712,-2.803264 -0.496112,-0.496112 -0.881944,-0.529167 -6.176701,-0.529167 -5.323585,0 -5.675181,0.03055 -6.129513,0.532582 -0.735188,0.812372 -0.620991,2.077427 0.255593,2.831433 0.733408,0.630851 0.767873,0.633977 6.102396,0.553439 4.83764,-0.07304 5.419487,-0.130525 5.921107,-0.585023 z M 67.336455,67.826933 C 56.747209,66.121335 49.211596,56.972137 49.825723,46.566664 c 0.178852,-3.030388 0.681764,-5.032932 1.92695,-7.672916 5.244205,-11.118519 19.181577,-15.064753 29.470428,-8.344271 9.155379,5.980119 11.95343,18.191212 6.315511,27.561794 -2.603891,4.327834 -7.32278,7.868535 -12.274199,9.20964 -1.592852,0.431428 -6.461681,0.742194 -7.927958,0.506022 z m 8.202083,-3.10235 c 7.247786,-2.316992 12.08544,-8.585482 12.481794,-16.173544 0.180731,-3.460041 -0.326775,-5.867358 -1.91525,-9.084845 -2.949112,-5.973484 -9.225351,-9.832862 -15.990502,-9.832862 -6.765151,0 -13.041391,3.859378 -15.990503,9.832862 -1.588475,3.217487 -2.095981,5.624804 -1.91525,9.084845 0.244553,4.68188 1.94076,8.483766 5.270649,11.813655 4.677077,4.677077 11.735987,6.381267 18.059062,4.359889 z m -6.152929,-2.084482 c -1.166223,-1.457696 -0.185365,-3.881393 1.258137,-3.108854 0.754876,0.403997 0.767844,2.764062 0.01739,3.165691 -0.669289,0.358193 -0.953626,0.345523 -1.275531,-0.05684 z M 68.374603,51.059462 c -1.55227,-0.768376 -2.346256,-2.271102 -2.13636,-4.043348 l 0.159185,-1.344071 -1.581007,-1.646455 c -1.654189,-1.722667 -1.753735,-1.933468 -1.307115,-2.767984 0.485048,-0.906321 1.372519,-0.602666 2.976804,1.018536 l 1.514341,1.530308 2.110342,-0.01702 2.110343,-0.01702 3.401229,-3.365367 c 1.870676,-1.850952 3.596613,-3.365367 3.835414,-3.365367 0.66258,0 1.337495,1.179383 1.01187,1.768195 -0.146231,0.26442 -1.7005,1.905652 -3.453934,3.647184 l -3.18806,3.166421 0.160893,1.368948 c 0.21313,1.813399 -0.57815,3.309226 -2.154128,4.072144 -1.377635,0.666902 -2.104414,0.665831 -3.459817,-0.0051 z m 2.79831,-2.376131 c 0.643414,-0.643414 0.680062,-1.511387 0.09128,-2.161979 -0.89143,-0.98502 -2.737117,-0.302366 -2.737117,1.012361 0,0.759333 0.869456,1.678784 1.5875,1.678784 0.291041,0 0.767291,-0.238125 1.058333,-0.529166 z m -16.086666,-0.3175 c -1.138887,-1.138888 1.011863,-2.645321 2.579183,-1.806517 0.649161,0.347421 0.863274,0.996227 0.532642,1.614017 -0.210897,0.394066 -0.559526,0.51 -1.533634,0.51 -0.69338,0 -1.403566,-0.142875 -1.578191,-0.3175 z m 26.934582,-0.211667 c -0.684149,-1.278344 1.396014,-2.385133 2.779292,-1.478773 1.354326,0.887388 0.664898,2.00794 -1.2354,2.00794 -0.989901,0 -1.321521,-0.113662 -1.543892,-0.529167 z M 69.245175,35.554899 c -0.312675,-0.312675 -0.212518,-2.617145 0.128571,-2.958234 0.986765,-0.986764 2.305192,0.406366 1.907567,2.015651 -0.204336,0.826999 -0.362022,0.986026 -1.043951,1.052826 -0.441792,0.04328 -0.888277,-0.0063 -0.992187,-0.110243 z m 17.835241,30.541717 c -0.279175,-0.751133 -0.124905,-1.205633 0.527791,-1.554945 0.831286,-0.444891 1.60346,0.149346 1.505678,1.158717 -0.0714,0.737076 -0.189318,0.852697 -0.943756,0.925395 -0.699269,0.06738 -0.905151,-0.0326 -1.089713,-0.529167 z M 29.359253,56.338505 c -0.369741,-0.690868 0.295911,-1.834341 1.067829,-1.834341 0.284332,0 0.706768,0.289672 0.938746,0.643716 0.584412,0.891925 0.127551,1.737534 -0.938746,1.737534 -0.512725,0 -0.87422,-0.185147 -1.067829,-0.546909 z M 17.647064,48.368577 c -0.207754,-0.336208 -0.525503,-1.166704 -0.706107,-1.845545 -0.44001,-1.653873 -1.454376,-2.801353 -3.338908,-3.77707 -1.380952,-0.714987 -1.563508,-0.902185 -1.563508,-1.603256 0,-0.703174 0.168768,-0.87422 1.478975,-1.498941 1.74427,-0.831687 2.670701,-1.845109 3.276207,-3.583839 0.792408,-2.275423 1.018334,-2.590136 1.859401,-2.590136 0.841067,0 1.066993,0.314713 1.859401,2.590136 0.605506,1.73873 1.531937,2.752152 3.276207,3.583839 1.310207,0.624721 1.478975,0.795767 1.478975,1.498941 0,0.703174 -0.168768,0.87422 -1.478975,1.498942 -1.74427,0.831686 -2.670701,1.845108 -3.276207,3.583838 -0.751984,2.159343 -1.036141,2.584737 -1.785034,2.672258 -0.503751,0.05887 -0.809633,-0.09094 -1.080427,-0.529167 z m 2.990435,-7.391601 c 0,-0.12713 -0.108762,-0.231145 -0.241694,-0.231145 -0.132932,0 -0.596029,-0.48182 -1.029104,-1.070711 l -0.78741,-1.070711 -0.582044,0.941766 c -0.320124,0.517972 -0.823084,1.070768 -1.11769,1.228436 -0.509703,0.272785 -0.480128,0.343239 0.61063,1.45464 l 1.146277,1.167971 1.000517,-1.09455 c 0.550285,-0.602003 1.000518,-1.198566 1.000518,-1.325696 z m 95.298991,7.633095 c -0.16643,-0.200529 -0.54021,-1.13392 -0.83064,-2.074204 -0.60421,-1.956212 -1.32727,-2.763334 -3.45169,-3.853001 -1.27464,-0.653792 -1.45521,-0.844902 -1.45521,-1.54016 0,-0.703174 0.16877,-0.87422 1.47898,-1.498941 1.74427,-0.831687 2.6707,-1.845109 3.2762,-3.583839 0.79241,-2.275423 1.01834,-2.590136 1.85941,-2.590136 0.84106,0 1.06699,0.314713 1.8594,2.590136 0.6055,1.73873 1.53193,2.752152 3.2762,3.583839 1.31021,0.624721 1.47898,0.795767 1.47898,1.498941 0,0.703174 -0.16877,0.87422 -1.47898,1.498942 -1.74427,0.831686 -2.6707,1.845108 -3.2762,3.583838 -0.74411,2.136717 -1.03938,2.58508 -1.75811,2.669659 -0.37166,0.04374 -0.81192,-0.08455 -0.97834,-0.285074 z m 1.73937,-6.147723 c 0.32876,-0.507522 0.71572,-0.922767 0.8599,-0.922767 0.14418,0 0.26215,-0.178594 0.26215,-0.396875 0,-0.218281 -0.11737,-0.396875 -0.26083,-0.396875 -0.14345,0 -0.57667,-0.477272 -0.9627,-1.060604 l -0.70188,-1.060604 -0.75997,1.033404 c -0.41799,0.568373 -0.94684,1.105112 -1.17524,1.192755 -0.32846,0.126042 -0.17576,0.407342 0.73049,1.345747 0.63017,0.652517 1.20529,1.186888 1.27805,1.18749 0.0728,6.02e-4 0.40127,-0.41415 0.73003,-0.921671 z"
       id="path1" /></g></svg>
